<svg xmlns="http://www.w3.org/2000/svg" viewBox="0 0 96 96" role="img" aria-label="农保云 候选C 地块拼叶">
  <defs>
    <linearGradient id="gC1" x1="0" y1="0" x2="1" y2="0">
      <stop offset="0" stop-color="#34d399"/>
      <stop offset="1" stop-color="#0c6a4a"/>
    </linearGradient>
    <linearGradient id="gC2" x1="1" y1="0" x2="0" y2="0">
      <stop offset="0" stop-color="#34d399"/>
      <stop offset="1" stop-color="#0c6a4a"/>
    </linearGradient>
  </defs>
  <rect width="96" height="96" rx="21" fill="#0b1510"/>
  <!-- 卫星取景框四角 -->
  <g fill="none" stroke="#8a99cf" stroke-width="2.6" opacity=".9" stroke-linecap="round">
    <path d="M15 25V17.5A2.5 2.5 0 0 1 17.5 15H25"/>
    <path d="M71 15H78.5A2.5 2.5 0 0 1 81 17.5V25"/>
    <path d="M81 71V78.5A2.5 2.5 0 0 1 78.5 81H71"/>
    <path d="M25 81H17.5A2.5 2.5 0 0 1 15 78.5V71"/>
  </g>
  <!-- 叶片两半地块：中缝留白作叶脉 -->
  <path d="M46.9 16C31.8 23 25.4 33 25.4 44.5 25.4 58 34.5 68 46.9 75V16Z" fill="url(#gC1)"/>
  <path d="M49.1 16C64.2 23 70.6 33 70.6 44.5 70.6 58 61.5 68 49.1 75V16Z" fill="url(#gC2)"/>
  <!-- 地块内部勘界虚线 -->
  <g fill="none" stroke="#04221a" stroke-width="1.6" stroke-dasharray="3 2.6" opacity=".55">
    <path d="M31 32Q36.5 48 33.5 63"/>
    <path d="M40 24Q43.5 42 41.5 70"/>
    <path d="M65 32Q59.5 48 62.5 63"/>
    <path d="M56 24Q52.5 42 54.5 70"/>
  </g>
  <!-- AI 缝合节点 -->
  <g fill="#22d3ee">
    <circle cx="48" cy="29" r="2.7"/>
    <circle cx="48" cy="48" r="2.7"/>
    <circle cx="48" cy="66" r="2.7"/>
  </g>
</svg>
